<?xml version="1.0" encoding="utf-8"?>
<!-- Generator: Adobe Illustrator 16.0.0, SVG Export Plug-In . SVG Version: 6.00 Build 0)  -->
<!DOCTYPE svg PUBLIC "-//W3C//DTD SVG 1.1//EN" "http://www.w3.org/Graphics/SVG/1.1/DTD/svg11.dtd">
<svg version="1.1" id="Layer_1" xmlns="http://www.w3.org/2000/svg" xmlns:xlink="http://www.w3.org/1999/xlink" x="0px" y="0px"
	 width="60.5px" height="10.578px" viewBox="0 0 60.5 10.578" enable-background="new 0 0 60.5 10.578" xml:space="preserve">
<g>
	<path fill="#FFD400" d="M0,7.1l0.923-1.295c0.564,0.588,1.439,1.08,2.542,1.08c0.936,0,1.392-0.432,1.392-0.888
		c0-1.415-4.605-0.443-4.605-3.454c0-1.331,1.151-2.435,3.034-2.435c1.271,0,2.327,0.384,3.118,1.116L5.457,2.471
		c-0.648-0.6-1.511-0.875-2.327-0.875c-0.732,0-1.14,0.324-1.14,0.804c0,1.271,4.594,0.419,4.594,3.406
		c0,1.463-1.043,2.567-3.203,2.567C1.847,8.372,0.744,7.856,0,7.1z"/>
	<path fill="#FFD400" d="M11.182,8.228v-0.6c-0.396,0.468-1.08,0.744-1.835,0.744c-0.923,0-2.015-0.624-2.015-1.919
		c0-1.355,1.091-1.871,2.015-1.871c0.768,0,1.452,0.252,1.835,0.708V4.51c0-0.588-0.504-0.972-1.271-0.972
		c-0.624,0-1.199,0.228-1.691,0.684l-0.576-1.02c0.708-0.624,1.619-0.911,2.53-0.911c1.319,0,2.531,0.527,2.531,2.194v3.742H11.182z
		 M11.182,6.836v-0.72C10.93,5.781,10.45,5.613,9.958,5.613c-0.6,0-1.091,0.312-1.091,0.875c0,0.54,0.492,0.852,1.091,0.852
		C10.45,7.34,10.93,7.172,11.182,6.836z"/>
	<path fill="#FFD400" d="M14.555,8.228V3.766h-0.959V2.435h0.959V2.123c0-1.235,0.792-2.015,1.955-2.015
		c0.552,0,1.139,0.144,1.511,0.54l-0.576,0.9c-0.156-0.156-0.36-0.24-0.636-0.24c-0.42,0-0.72,0.276-0.72,0.816v0.312h1.175v1.332
		H16.09v4.461H14.555z"/>
	<path fill="#FFD400" d="M17.771,5.325c0-1.679,1.235-3.034,2.999-3.034c1.727,0,2.902,1.295,2.902,3.19v0.336h-4.306
		c0.096,0.731,0.684,1.343,1.667,1.343c0.492,0,1.175-0.216,1.547-0.576l0.671,0.983c-0.576,0.528-1.487,0.804-2.387,0.804
		C19.103,8.372,17.771,7.184,17.771,5.325z M20.77,3.502c-0.948,0-1.355,0.708-1.427,1.284h2.854
		C22.161,4.234,21.777,3.502,20.77,3.502z"/>
	<path fill="#FFFFFF" d="M24.431,4.234c0-2.531,1.919-4.138,4.258-4.138c1.667,0,2.71,0.839,3.31,1.787L30.584,2.65
		c-0.36-0.563-1.043-1.043-1.895-1.043c-1.451,0-2.507,1.115-2.507,2.626s1.056,2.626,2.507,2.626c0.708,0,1.379-0.312,1.703-0.612
		V5.289h-2.111V3.802h3.814v3.07c-0.816,0.912-1.955,1.511-3.406,1.511C26.35,8.383,24.431,6.752,24.431,4.234z"/>
	<path fill="#FFFFFF" d="M33.418,8.228V2.435h1.523v0.792c0.408-0.516,1.127-0.935,1.847-0.935v1.487
		c-0.107-0.024-0.252-0.036-0.42-0.036c-0.503,0-1.175,0.288-1.427,0.66v3.826H33.418z"/>
	<path fill="#FFFFFF" d="M37.583,0.899c0-0.503,0.42-0.899,0.911-0.899c0.504,0,0.912,0.396,0.912,0.899
		c0,0.504-0.408,0.912-0.912,0.912C38.002,1.811,37.583,1.403,37.583,0.899z M37.739,8.228V2.435h1.522v5.793H37.739z"/>
	<path fill="#FFFFFF" d="M44.684,8.228V4.726c0-0.804-0.419-1.08-1.067-1.08c-0.6,0-1.067,0.336-1.319,0.684v3.898h-1.522V2.435
		h1.522V3.19c0.372-0.444,1.08-0.899,2.027-0.899c1.271,0,1.883,0.719,1.883,1.847v4.09H44.684z"/>
	<path fill="#FFFFFF" d="M47.603,9.715l0.684-1.104c0.468,0.516,1.079,0.72,1.811,0.72c0.732,0,1.596-0.324,1.596-1.463V7.28
		c-0.456,0.576-1.079,0.911-1.787,0.911c-1.451,0-2.555-1.02-2.555-2.95c0-1.895,1.092-2.95,2.555-2.95
		c0.695,0,1.319,0.3,1.787,0.887V2.435h1.535v5.397c0,2.207-1.703,2.747-3.131,2.747C49.102,10.578,48.334,10.351,47.603,9.715z
		 M51.693,6.177V4.306c-0.252-0.384-0.804-0.66-1.308-0.66c-0.863,0-1.463,0.6-1.463,1.595s0.6,1.595,1.463,1.595
		C50.889,6.836,51.441,6.548,51.693,6.177z"/>
	<path fill="#FFFFFF" d="M54.371,5.325c0-1.643,1.151-3.034,3.059-3.034c1.919,0,3.07,1.391,3.07,3.034
		c0,1.655-1.151,3.046-3.07,3.046C55.522,8.372,54.371,6.98,54.371,5.325z M58.917,5.325c0-0.899-0.54-1.679-1.487-1.679
		c-0.948,0-1.476,0.78-1.476,1.679c0,0.912,0.527,1.691,1.476,1.691C58.376,7.016,58.917,6.237,58.917,5.325z"/>
</g>
</svg>
